<?xml version="1.0" encoding="UTF-8" standalone="no"?>
<!-- Created with Inkscape (http://www.inkscape.org/) -->

<svg
   xmlns:dc="http://purl.org/dc/elements/1.1/"
   xmlns:cc="http://creativecommons.org/ns#"
   xmlns:rdf="http://www.w3.org/1999/02/22-rdf-syntax-ns#"
   xmlns:svg="http://www.w3.org/2000/svg"
   xmlns="http://www.w3.org/2000/svg"
   xmlns:sodipodi="http://sodipodi.sourceforge.net/DTD/sodipodi-0.dtd"
   xmlns:inkscape="http://www.inkscape.org/namespaces/inkscape"
   width="292.36118"
   height="331.29703"
   id="svg2"
   version="1.1"
   inkscape:version="0.48.0 r9654"
   sodipodi:docname="Nuevo documento 1">
  <defs
     id="defs4" />
  <sodipodi:namedview
     id="base"
     pagecolor="#ffffff"
     bordercolor="#666666"
     borderopacity="1.0"
     inkscape:pageopacity="0.0"
     inkscape:pageshadow="2"
     inkscape:zoom="0.98994949"
     inkscape:cx="204.50151"
     inkscape:cy="106.06311"
     inkscape:document-units="px"
     inkscape:current-layer="layer1"
     showgrid="false"
     fit-margin-top="20"
     fit-margin-left="20"
     fit-margin-right="20"
     fit-margin-bottom="20"
     inkscape:window-width="1280"
     inkscape:window-height="995"
     inkscape:window-x="0"
     inkscape:window-y="0"
     inkscape:window-maximized="1" />
  <metadata
     id="metadata7">
    <rdf:RDF>
      <cc:Work
         rdf:about="">
        <dc:format>image/svg+xml</dc:format>
        <dc:type
           rdf:resource="http://purl.org/dc/dcmitype/StillImage" />
        <dc:title></dc:title>
      </cc:Work>
    </rdf:RDF>
  </metadata>
  <g
     inkscape:label="Capa 1"
     inkscape:groupmode="layer"
     id="layer1"
     transform="translate(-145.49849,-307.1283)">
    <g
       id="g3050"
       transform="translate(-49.497479,-16.162443)">
      <path
         style="fill:#d3d0cd"
         d="m 345.85716,633.78465 c -10.70771,-1.037 -30.49312,-5.66377 -37.34245,-8.73245 -3.75318,-1.68152 -6.15813,-3.44789 -6.72524,-4.93951 -0.48555,-1.27707 -1.48317,-2.32195 -2.21694,-2.32195 -0.73378,0 -6.93242,2.06653 -13.77476,4.59228 -6.84233,2.52575 -13.22635,4.82778 -14.18671,5.11561 -4.01695,1.20394 -36.93852,-5.07488 -46.53836,-8.87583 -2.90645,-1.15077 -5.74337,-2.94981 -6.30427,-3.99785 -0.65314,-1.2204 -1.04064,-20.49924 -1.07775,-53.61987 -0.0443,-39.54031 -0.35493,-52.30286 -1.3195,-54.21434 -0.97071,-1.92364 -1.28333,-16.4478 -1.35602,-63 -0.10773,-68.99638 0.21354,-86.77154 1.59327,-88.15127 0.53552,-0.53552 5.42306,-1.38734 10.8612,-1.89292 5.43814,-0.50559 17.76253,-1.81077 27.38753,-2.90039 43.51209,-4.92589 64.0868,-7.02007 71.5,-7.27755 l 8,-0.27787 0.31326,3.24867 c 0.48976,5.07908 2.61713,5.62503 14.99418,3.84799 20.9671,-3.01035 34.72992,-4.49143 37.19256,-4.00245 1.375,0.27302 6.82543,-0.10718 12.11208,-0.84488 5.28664,-0.73771 10.12414,-1.17059 10.75,-0.96197 0.62585,0.20862 1.13792,1.63671 1.13792,3.17353 0,6.13459 4.50469,6.57008 29.90733,2.89126 11.22403,-1.62547 21.79903,-2.81967 23.5,-2.65377 l 3.09267,0.30162 -0.37865,122.5 c -0.20825,67.375 -0.58946,122.86526 -0.84714,123.31168 -0.25767,0.44643 -1.66228,1.28224 -3.12135,1.85736 -2.94873,1.1623 -49.50918,17.96955 -58.15286,20.99184 -3.025,1.0577 -7.75,2.77385 -10.5,3.81367 -2.75,1.03981 -10.85,4.00454 -18,6.5883 -7.15,2.58375 -13.71043,5.3141 -14.57874,6.06744 -1.68244,1.45968 -4.04633,1.51366 -15.92126,0.36362 z"
         id="path3064"
         inkscape:connector-curvature="0" />
      <path
         style="fill:#afaeae"
         d="m 351.85716,631.89877 c -1.375,-0.38093 -3.07432,-1.88451 -3.77626,-3.34127 -1.22998,-2.5526 -3.49946,-3.8122 -7.72374,-4.28681 -3.33497,-0.37469 -3.5,-0.44447 -3.5,-1.47995 0,-0.55 2.25,-1 5,-1 4.68064,0 6.5827,-1.18829 3.75,-2.34278 -0.83984,-0.34228 -0.44147,-1.16231 1.21406,-2.4991 2.21867,-1.79151 2.33412,-2.23245 1.15927,-4.42767 -0.71763,-1.34091 -1.19705,-3.51631 -1.06537,-4.83423 0.13168,-1.31792 -0.11807,-3.22914 -0.55499,-4.24714 -0.51709,-1.20481 -0.32107,-2.14347 0.56155,-2.68896 1.09795,-0.67857 0.99097,-1.24132 -0.56225,-2.95761 -1.49866,-1.656 -1.67667,-2.48953 -0.8139,-3.81105 0.88264,-1.35195 0.59662,-2.2321 -1.42498,-4.38494 -2.4072,-2.56348 -2.47097,-2.92549 -1.32123,-7.5 0.66442,-2.64359 1.95784,-5.63694 2.87425,-6.65191 1.56712,-1.73564 1.51929,-1.96435 -0.80425,-3.84585 -2.42046,-1.95997 -2.43091,-2.02939 -0.51626,-3.42942 1.66567,-1.21797 1.76833,-1.7266 0.69528,-3.44482 -0.69241,-1.10873 -0.96695,-2.48832 -0.61007,-3.06576 1.03154,-1.66907 1.27568,-11.83924 0.29869,-12.44305 -0.49148,-0.30375 -0.3829,-1.48566 0.24411,-2.65723 0.92072,-1.72039 0.80002,-2.35093 -0.65348,-3.41376 -1.6729,-1.22325 -1.63999,-1.35644 0.53385,-2.1606 2.01074,-0.74382 2.08828,-0.94462 0.58724,-1.52063 -1.20747,-0.46335 -1.53277,-1.28322 -1.07785,-2.71655 0.35836,-1.1291 0.15884,-2.64662 -0.44338,-3.37225 -0.81031,-0.97637 -0.71346,-1.63595 0.3726,-2.53729 1.16787,-0.96925 1.22655,-1.60384 0.28737,-3.10772 -0.91254,-1.4612 -0.90238,-2.16756 0.0448,-3.11472 2.7609,-2.7609 1.05856,-3.54342 -11.29143,-5.19036 -6.88402,-0.91803 -15.64934,-2.42104 -19.4785,-3.34004 -3.82915,-0.919 -7.19068,-1.44232 -7.47006,-1.16294 -0.27938,0.27938 -0.54208,4.30156 -0.58377,8.93817 -0.0417,4.63662 -0.0854,9.33021 -0.0972,10.43021 -0.37223,34.83631 -0.28347,38.32953 1.03659,40.79593 0.82691,1.545 2.41724,2.72115 3.92288,2.90122 1.3927,0.16657 2.73148,0.90914 2.97507,1.65017 0.33559,1.02089 -0.58073,1.26316 -3.78212,1 -4.89365,-0.40228 -4.38079,-2.17452 -5.4477,18.82525 -0.40106,7.89403 -0.25836,12.3951 0.40599,12.80569 0.56343,0.34822 1.52379,1.5662 2.13413,2.70662 1.06394,1.988 0.93016,2.04663 -3.24463,1.42181 -4.30857,-0.64484 -5.41285,-0.35763 -24.85432,6.46427 -1.925,0.67547 -4.49514,1.67759 -5.71143,2.22692 -1.83509,0.82882 -3.16696,0.3407 -7.82611,-2.86817 -3.08807,-2.12684 -5.81421,-4.18983 -6.05808,-4.58443 -0.24387,-0.39459 0.80287,-1.31292 2.32611,-2.04073 1.70614,-0.8152 2.90229,-2.27957 3.11533,-3.81392 0.1902,-1.36984 0.80593,-3.05088 1.36829,-3.73562 0.7161,-0.87195 0.53756,-1.98506 -0.59582,-3.71482 -1.52971,-2.33464 -1.50367,-2.53116 0.47571,-3.5905 2.07613,-1.11111 2.07744,-1.13915 0.15398,-3.28518 -1.55627,-1.73636 -1.886,-3.38277 -1.66691,-8.32339 0.26471,-5.96969 0.18319,-6.19613 -2.65398,-7.37132 -3.30046,-1.3671 -3.59061,-2.17423 -1.42708,-3.9698 0.825,-0.68469 1.5,-1.71686 1.5,-2.2937 0,-0.57685 0.74157,-1.86824 1.64793,-2.86976 2.41565,-2.66926 2.81073,-12.47564 0.55429,-13.75811 -1.46457,-0.8324 -1.51817,-1.26782 -0.38392,-3.11874 1.12488,-1.83565 1.07041,-2.42518 -0.37128,-4.01824 -1.08199,-1.19558 -1.41992,-2.50967 -0.9397,-3.6542 1.25114,-2.98192 1.43592,-11.65072 0.27807,-13.04583 -0.77617,-0.93523 -0.78048,-1.94304 -0.0151,-3.52551 0.58949,-1.21875 1.3046,-4.52332 1.58912,-7.34348 0.76264,-7.55903 -0.7779,-8.78393 -13.01712,-10.34999 -12.6676,-1.62087 -27.85572,-4.67821 -31.16668,-6.2738 -1.42507,-0.68675 -2.90271,-2.37364 -3.28364,-3.74864 -0.38094,-1.375 -0.73747,-29.22064 -0.79229,-61.87921 l -0.0997,-59.37921 6.75,0.63144 c 18.69516,1.74887 34.6665,2.58402 38.30129,2.00279 l 4.05581,-0.64855 -0.44233,-10.91908 c -0.24328,-6.00549 -0.66957,-11.14631 -0.94731,-11.42405 -0.27774,-0.27774 -6.51529,-0.94238 -13.86122,-1.47698 -16.18505,-1.17787 -27.80967,-2.52724 -28.60258,-3.32015 -0.32285,-0.32285 -0.28734,-0.88666 0.0789,-1.2529 0.74834,-0.74834 80.86785,-9.82837 98.66743,-11.18209 6.325,-0.48103 12.0625,-0.66388 12.75,-0.40632 0.6875,0.25756 1.25,1.53477 1.25,2.83825 0,1.40648 0.98821,3.01746 2.43081,3.96268 2.20981,1.44793 3.4144,1.45434 13.25,0.0706 19.84795,-2.79245 29.75059,-3.8655 37.81919,-4.09807 4.4,-0.12682 11.2625,-0.57865 15.25,-1.00405 l 7.25,-0.77347 0,3.00677 c 0,6.31332 5.62641,7.0732 28.29455,3.8213 9.463,-1.35753 19.45545,-2.60355 22.20545,-2.76894 l 5,-0.30071 -0.26266,61 c -0.14446,33.55 -0.50184,74.5 -0.79418,91 -0.60777,34.30303 -0.6013,30.77232 -0.0742,40.5 0.22351,4.125 0.006,8.26019 -0.48399,9.18931 -0.53243,1.01019 -0.51353,1.92222 0.047,2.26866 0.54314,0.33568 0.74635,5.93392 0.48314,13.31069 -0.74104,20.76922 -1.05037,24.0869 -2.39702,25.70952 -1.46316,1.763 -7.57728,4.64403 -17.01811,8.01909 -3.575,1.27805 -14.375,5.31692 -24,8.97525 -9.625,3.65834 -26.275,9.84375 -37,13.74538 -10.725,3.90162 -20.38763,7.69871 -21.47251,8.43798 -2.08447,1.42042 -6.36837,1.60441 -10.52749,0.45215 z m 109.5,-51.10803 c 0.33992,-0.55 0.16803,-1 -0.38197,-1 -0.55,0 -1.27811,0.45 -1.61803,1 -0.33992,0.55 -0.16803,1 0.38197,1 0.55,0 1.27811,-0.45 1.61803,-1 z m -120.625,-192.625 c 3.19276,-0.63855 4.45774,-3.76086 1.875,-4.62803 -0.98246,-0.32987 -0.95677,-0.97023 0.12007,-2.99195 1.2607,-2.3669 1.19871,-5.78812 -0.20391,-11.25502 -0.28223,-1.1 -0.54757,-2.54211 -0.58965,-3.20469 -0.0421,-0.66258 -1.53901,-1.46036 -3.32651,-1.77286 -5.13414,-0.89758 -32.4881,-3.10975 -33.65266,-2.72156 -1.46727,0.48908 -0.24001,12.0901 1.58852,15.01603 1.12282,1.79668 1.18326,2.63585 0.26917,3.73727 -3.1475,3.7925 2.46249,6.16321 17.54497,7.41427 13.13925,1.08988 12.97829,1.08588 16.375,0.40654 z m -31.875,228.65638 c 0,-0.53273 0.675,-0.70959 1.5,-0.39301 0.825,0.31659 1.5,0.75246 1.5,0.96862 0,0.21615 -0.675,0.39301 -1.5,0.39301 -0.825,0 -1.5,-0.43588 -1.5,-0.96862 z m 22.5,-52.03138 c -0.33992,-0.55 0.30852,-1 1.44098,-1 1.13246,0 2.05902,0.45 2.05902,1 0,0.55 -0.64844,1 -1.44098,1 -0.79254,0 -1.7191,-0.45 -2.05902,-1 z m 2.5,-7 c 0,-0.55 0.45,-1 1,-1 0.55,0 1,0.45 1,1 0,0.55 -0.45,1 -1,1 -0.55,0 -1,-0.45 -1,-1 z m -1.75,-6.70573 c -3.51828,-0.67765 -2.63748,-2.29427 1.25,-2.29427 2.44444,0 3.5,0.45238 3.5,1.5 0,1.50392 -0.57039,1.59929 -4.75,0.79427 z m -13.82969,-14.17974 c -1.69383,-1.03289 -3.65982,-3.27856 -4.36888,-4.99036 -1.11176,-2.68404 -1.05302,-3.47281 0.42689,-5.73143 1.59016,-2.42689 2.14255,-2.58821 7.52845,-2.19863 7.23491,0.52333 13.99323,4.50662 13.99323,8.2475 0,5.85177 -10.89664,8.74824 -17.57969,4.67292 z m -85.04201,-5.51793 c -8.86901,-3.95524 -8.14843,-13.5966 1.01618,-13.5966 8.84081,0 15.78205,7.83955 10.85552,12.2604 -2.58206,2.31703 -8.2435,2.95425 -11.8717,1.3362 z"
         id="path3062"
         inkscape:connector-curvature="0" />
      <path
         style="fill:#939192"
         d="m 356.36352,628.15171 c -0.99897,-2.39085 -1.18942,-4.03793 -0.55527,-4.80203 0.53086,-0.63966 0.70593,-2.15449 0.38903,-3.3663 -0.31689,-1.21181 -0.0343,-2.85618 0.62795,-3.65416 0.66226,-0.79798 0.96697,-1.83456 0.67714,-2.30352 -0.70178,-1.13552 -0.81978,-10.67135 -0.19789,-15.99232 0.60988,-5.21812 -0.65889,-8.85763 -3.39004,-9.72446 -2.71557,-0.86189 -2.59705,-1.89135 0.4026,-3.49671 2.40624,-1.28778 2.45863,-1.57495 2.4028,-13.17003 -0.0314,-6.51945 -0.47067,-12.10917 -0.97619,-12.42159 -0.50551,-0.31243 -0.6501,-1.00332 -0.3213,-1.53533 0.3288,-0.53201 0.50409,-5.11341 0.38953,-10.1809 -0.11456,-5.06749 -0.14123,-12.89338 -0.0593,-17.39086 0.082,-4.49748 -0.20821,-8.39802 -0.64483,-8.66786 -0.43662,-0.26985 -7.30912,-1.23051 -15.27224,-2.13481 -7.96311,-0.90429 -17.62839,-2.3202 -21.47839,-3.14645 -3.85,-0.82625 -8.6875,-1.75758 -10.75,-2.06962 -3.69087,-0.55841 -3.75171,-0.51404 -3.85848,2.81431 -0.0597,1.85992 -0.27516,15.2245 -0.47889,29.69907 -0.32052,22.77209 -0.1566,26.64372 1.21681,28.73981 1.45205,2.2161 1.45025,2.47498 -0.0211,3.03959 -1.27291,0.48846 -1.60833,2.12754 -1.60833,7.85931 0,3.98317 -0.2952,10.73433 -0.656,15.00258 -0.61032,7.22006 -0.86224,7.88587 -3.61795,9.56171 -5.06272,3.07883 -9.28318,3.36691 -12.66765,0.86466 -2.36099,-1.74556 -3.2706,-1.95384 -4.40852,-1.00945 -1.77945,1.47682 -2.75877,4.93906 -1.59967,5.65542 1.29152,0.7982 -0.0455,3.46897 -1.73665,3.46897 -1.12024,0 -1.3127,-0.72743 -0.80456,-3.04096 0.40872,-1.86093 0.19722,-3.6081 -0.54505,-4.50248 -0.70644,-0.85121 -0.96353,-2.70868 -0.61564,-4.4481 0.7492,-3.74601 -0.0833,-6.04739 -1.93107,-5.33833 -1.75175,0.67221 -1.82856,-1.03358 -0.16724,-3.71421 0.99037,-1.59802 0.99354,-2.17668 0.0153,-2.78602 -0.92848,-0.57831 -1.3869,-10.55442 -1.84819,-40.21949 -0.3374,-21.69772 -0.90677,-39.71929 -1.26526,-40.04792 -0.35851,-0.32864 -8.52682,-1.555 -18.15182,-2.72526 -18.3915,-2.23613 -32.55916,-5.30782 -34.79529,-7.54394 -1.76336,-1.76337 -3.05731,-119.98832 -1.32497,-121.05897 0.5986,-0.36995 7.73303,-0.10425 15.85431,0.59044 15.40153,1.31745 33.7024,1.73213 34.6494,0.78512 0.78291,-0.7829 1.02494,-23.87483 0.25827,-24.64149 -0.34967,-0.34968 -7.27461,-0.97633 -15.38874,-1.39256 -18.19962,-0.9336 -27.13235,-1.91162 -27.83437,-3.04753 -0.29516,-0.47756 -0.31569,-0.8683 -0.0456,-0.8683 0.27005,0 20.65911,-2.20423 45.30902,-4.89828 64.80182,-7.08237 60.82136,-6.96374 63.05436,-1.87931 0.71498,1.62798 2.30417,3.00064 3.95313,3.4145 1.51663,0.38065 12.89443,-0.49408 25.28401,-1.94385 12.38958,-1.44977 23.87651,-2.56383 25.52651,-2.47569 1.65,0.0881 7.2351,-0.21344 12.41133,-0.67017 8.3704,-0.73856 9.34436,-0.6559 8.80587,0.74737 -0.33299,0.86778 0.25105,2.66665 1.29789,3.99749 2.80037,3.56009 9.32551,3.96756 26.59065,1.66047 17.28601,-2.30988 22.11036,-2.43386 15.39426,-0.39561 -2.475,0.75113 -5.7375,1.61667 -7.25,1.92344 -3.2843,0.66611 -3.62396,2.25194 -0.57833,2.70009 2.4094,0.35453 3.80777,2.81955 1.59949,2.81955 -1.87719,0 -10.09258,4.01192 -9.47665,4.62784 0.26828,0.26829 3.24514,0.66539 6.61523,0.88245 3.37009,0.21706 6.57642,0.67214 7.12516,1.01128 1.54893,0.95729 0.0935,2.47843 -2.37141,2.47843 -2.39369,0 -6.66349,2.55884 -6.66349,3.99334 0,0.48397 1.4625,1.03688 3.25,1.22868 l 3.25,0.34874 -4.25,1.8232 c -2.3375,1.00276 -4.25,2.16582 -4.25,2.58457 0,0.41875 2.04723,0.99212 4.5494,1.27415 7.96541,0.89781 7.51272,2.24831 -1.36034,4.05826 -8.73202,1.78117 -8.9444,3.06617 -0.39364,2.38175 6.89177,-0.55163 7.34245,-0.46026 8.14531,1.65141 0.46743,1.22945 0.72416,12.34248 0.57051,24.69563 -0.15365,12.35315 -0.33154,31.35742 -0.39531,42.23171 -0.11443,19.515 -0.14511,19.78332 -2.36593,20.68727 -1.2375,0.50371 -10.8,3.27232 -21.25,6.15246 -18.64331,5.13831 -25.13838,7.64497 -17,6.56083 2.2,-0.29307 7.375,-0.9755 11.5,-1.51651 4.125,-0.54102 10.10946,-1.69733 13.29879,-2.56958 13.9824,-3.82405 12.85929,-0.88175 -1.54879,4.05748 -9.39966,3.22229 -11.30161,4.21941 -11.56376,6.06239 -0.20776,1.46061 -1.64352,2.79247 -4.25,3.94245 -2.16493,0.95517 -3.93624,2.14885 -3.93624,2.65263 0,0.50377 -1.16804,0.6228 -2.59565,0.26449 -3.16774,-0.79505 -5.40435,0.85798 -5.40435,3.99422 0,2.0813 0.34849,2.25814 3.45631,1.75381 1.90098,-0.30849 4.23957,-0.26032 5.19689,0.10703 1.42399,0.54644 1.02269,1.10893 -2.20631,3.09255 -2.17079,1.33354 -5.18439,2.43867 -6.69689,2.45583 -1.5125,0.0172 -2.75,0.48121 -2.75,1.03121 0,0.55 1.2375,1.03163 2.75,1.07029 1.5125,0.0386 3.61108,0.40785 4.66351,0.82044 1.66939,0.65445 1.31856,1.17741 -2.75,4.09923 -5.33258,3.82957 -6.2783,6.60805 -1.91351,5.62184 1.5125,-0.34175 5.225,-0.87477 8.25,-1.18448 5.11121,-0.52332 5.36278,-0.45229 3.55887,1.00478 -1.06762,0.86234 -2.64262,1.57087 -3.5,1.57449 -0.85738,0.004 -2.90887,0.90066 -4.55887,1.99341 -1.65,1.09275 -3.7875,1.98979 -4.75,1.99341 -3.20631,0.0121 -1.80361,1.91507 2.20778,2.99522 2.17678,0.58615 4.24259,1.52656 4.5907,2.08981 0.6456,1.0446 -3.15969,5.10793 -6.4152,6.85023 -2.24849,1.20336 -1.80302,7.26556 0.46981,6.3934 1.67401,-0.64238 1.76347,0.12449 0.32752,2.80759 -0.77704,1.45191 -0.74645,2.38731 0.11187,3.42153 2.37901,2.86653 0.34877,4.4468 -5.7611,4.48425 -5.55192,0.034 -5.68216,0.0935 -3.28138,1.49736 1.72632,1.00951 3.96999,1.27897 7.25,0.87073 2.6125,-0.32516 4.75,-0.30239 4.75,0.0506 0,0.97389 -5.14579,5.39927 -8.25,7.095 -1.5125,0.82623 -2.75,1.95651 -2.75,2.51173 0,0.67049 0.64957,0.66187 1.93426,-0.0257 2.87862,-1.54059 3.34807,-1.29245 2.81643,1.48869 -0.61649,3.22495 0.26023,3.71689 4.18549,2.34853 3.8266,-1.33396 5.14142,-0.51948 1.93316,1.19752 -1.26607,0.67759 -4.39442,1.15791 -6.95188,1.06739 -3.09562,-0.10956 -5.06985,0.34138 -5.90615,1.34906 -1.07291,1.29278 -0.8298,1.51363 1.66625,1.51363 1.60734,0 3.34994,0.41789 3.87244,0.92865 0.58467,0.57153 2.84042,0.57123 5.86588,-7.9e-4 2.70373,-0.51119 5.14588,-0.69943 5.427,-0.41831 0.93229,0.93229 -3.30083,3.42631 -5.87037,3.45865 -1.39013,0.0175 -3.57346,0.76442 -4.85185,1.65984 -3.26508,2.28695 -0.9561,3.51515 5.12934,2.7284 3.97388,-0.51376 4.75,-0.34796 4.75,1.01473 0,0.89586 -0.7875,1.63561 -1.75,1.64389 -0.9625,0.008 -3.54711,0.64045 -5.74358,1.40482 -2.77685,0.96634 -4.5571,1.08818 -5.84315,0.39991 -2.16249,-1.15731 -6.66327,-0.27404 -6.66327,1.30769 0,0.66086 0.97739,0.84405 2.48477,0.46572 1.68533,-0.42299 3.05271,-0.0557 4.25,1.14159 1.38672,1.38672 3.05178,1.69276 7.76523,1.42724 4.55234,-0.25644 5.7279,-0.0567 4.87226,0.82774 -1.68469,1.74144 -8.25155,3.3443 -13.62226,3.32496 -2.6125,-0.009 -4.75,0.11982 -4.75,0.28717 0,0.16736 1.4625,0.97748 3.25,1.80027 2.78761,1.28314 3.96136,1.30693 8.25,0.16718 7.86961,-2.09144 8.58345,-0.18304 1.31799,3.52353 -2.22548,1.13535 -4.25809,2.87406 -4.51691,3.86381 -0.25882,0.98974 -1.66995,2.35886 -3.13583,3.04248 -3.82874,1.78554 -22.57088,9.27992 -29.91525,11.96215 -3.4375,1.2554 -6.25,2.67768 -6.25,3.16063 0,2.3787 -3.15648,0.43932 -4.49364,-2.76096 z m -72.69386,-24.29847 c 0.25,-0.75 -0.125,-1.125 -0.875,-0.875 -0.72187,0.24063 -1.50938,1.02812 -1.75,1.75 -0.25,0.75 0.125,1.125 0.875,0.875 0.72187,-0.24063 1.50938,-1.02813 1.75,-1.75 z m 68.78625,-214.82781 c 1.21761,-0.81417 1.44726,-2.27977 1.56467,-9.98557 0.044,-2.88798 -0.44661,-5.88542 -1.09026,-6.66097 -0.8001,-0.96406 -0.8386,-1.61508 -0.12172,-2.05814 1.69776,-1.04927 1.2054,-5.25543 -0.70144,-5.99227 -0.9625,-0.37194 -8.5,-1.10026 -16.75,-1.6185 -8.25,-0.51825 -18.55839,-1.38334 -22.90754,-1.92245 -9.07042,-1.12433 -11.04808,-0.34768 -10.1005,3.96661 0.31948,1.4546 0.62064,6.05969 0.66924,10.23354 0.0486,4.17385 0.36971,8.01965 0.71358,8.54623 1.52838,2.34045 7.76534,3.88676 22.62522,5.60939 5.93085,0.68754 25.02319,0.60131 26.09875,-0.11787 z m -86.03399,228.87009 c -0.3043,-0.49236 0.18355,-1.17796 1.08411,-1.52353 1.94685,-0.74708 2.80894,-0.13102 1.89225,1.35222 -0.80368,1.30037 -2.2279,1.38235 -2.97636,0.17131 z m 146.43524,-14.10478 c 0,-0.55 0.92656,-1 2.05902,-1 1.13246,0 1.7809,0.45 1.44098,1 -0.33992,0.55 -1.26648,1 -2.05902,1 -0.79254,0 -1.44098,-0.45 -1.44098,-1 z m 0.5,-15 c 0.33992,-0.55 1.06803,-1 1.61803,-1 0.55,0 0.72189,0.45 0.38197,1 -0.33992,0.55 -1.06803,1 -1.61803,1 -0.55,0 -0.72189,-0.45 -0.38197,-1 z m -145.6875,-9.68311 c 0.72187,-0.28887 1.58437,-0.25335 1.91667,0.0789 0.33229,0.33229 -0.25834,0.56864 -1.3125,0.52522 -1.16495,-0.048 -1.4019,-0.28494 -0.60417,-0.60416 z m 49.5875,-44.71689 c -3.67506,-3.67506 -4.09997,-5.26047 -2.13142,-7.95263 3.14696,-4.30371 18.00619,-0.3851 19.38597,5.11239 0.95349,3.79902 -2.51469,6.24024 -8.86533,6.24024 -4.34068,0 -5.43118,-0.44196 -8.38922,-3.4 z M 232.134,529.86819 c -5.29467,-3.3107 -5.68458,-9.21153 -0.73307,-11.09409 4.50115,-1.71134 12.04102,1.50377 14.55865,6.20802 2.63515,4.92382 -7.84305,8.6269 -13.82558,4.88607 z"
         id="path3060"
         inkscape:connector-curvature="0" />
      <path
         style="fill:#ab8973"
         d="m 296.53807,595.75438 c -2.03053,-1.59721 -2.46739,-2.52277 -1.77484,-3.76029 0.60179,-1.07532 0.46015,-2.52826 -0.41059,-4.21209 -1.2331,-2.38455 -1.92924,-10.68363 -2.9351,-34.99126 -0.57355,-13.86031 -2.50669,-29.93082 -3.87311,-32.19779 -0.98659,-1.63682 -1.99743,-1.89519 -5.98048,-1.52862 -5.86989,0.54022 -7.69899,-1.413 -7.7221,-8.2461 -0.0181,-5.35429 -1.87172,-9.37382 -2.08786,-4.52749 -0.0736,1.65 -0.0745,3.50247 -0.002,4.1166 0.0724,0.61413 -0.54267,1.67626 -1.36688,2.36029 -1.19906,0.99514 -4.23433,0.91405 -15.187,-0.40571 -22.7962,-2.74686 -37.2787,-6.24468 -35.79506,-8.64525 0.34452,-0.55745 0.11065,-1.63498 -0.51971,-2.39452 -2.12716,-2.56306 -4.08962,-115.75607 -2.02898,-117.02961 0.5484,-0.33893 7.1859,-0.0775 14.75,0.58092 7.5641,0.65843 19.7531,1.30318 27.08667,1.43276 l 13.33376,0.23561 -0.70627,-13.12554 c -0.38856,-7.21905 -0.9027,-13.3395 -1.14264,-13.60098 -0.23994,-0.26149 -8.60287,-0.81156 -18.58429,-1.22238 -16.79576,-0.69127 -21.64863,-1.22132 -20.61798,-2.25198 0.2215,-0.22149 10.9734,-1.57147 23.89313,-2.99996 12.91973,-1.42849 29.34042,-3.28364 36.49042,-4.12255 7.15,-0.83891 18.175,-1.77815 24.5,-2.08721 l 11.5,-0.56191 4.31086,3.74073 c 4.97652,4.31835 3.92329,4.29736 33.68914,0.67139 8.8,-1.07199 20.85069,-2.00517 26.77932,-2.07373 11.59967,-0.13414 14.01766,0.63495 17.18264,5.46531 1.54594,2.35942 1.50541,2.47973 -1.18052,3.50389 -1.52979,0.58332 -7.95644,1.72112 -14.28144,2.52846 -6.325,0.80733 -14.65,2.03664 -18.5,2.7318 l -7,1.26393 -0.215,23.44482 c -0.11826,12.89465 -0.47196,36.26982 -0.78602,51.94482 -0.31405,15.675 -0.73869,37.42139 -0.94363,48.3253 -0.34701,18.46276 -0.69718,21.8662 -2.10491,20.45847 -0.30226,-0.30226 -0.79955,-15.11476 -1.10508,-32.91667 -0.30554,-17.8019 -0.73323,-32.5546 -0.95044,-32.78377 -0.21721,-0.22916 -0.40181,16.42084 -0.41023,37 -0.008,20.76218 -0.42088,38.05765 -0.92648,38.85673 -1.56175,2.46827 -34.95821,-0.97908 -51.60982,-5.32742 -3.25386,-0.84971 -6.21795,-1.22265 -6.58686,-0.82878 -0.36891,0.39388 -0.84219,18.94114 -1.05173,41.21614 -0.23674,25.16557 -0.76991,41.17819 -1.40819,42.29118 -0.97362,1.69773 -1.16771,1.68065 -3.7207,-0.32754 z m 37.20122,-81.86963 c 1.09752,-0.69511 0.97209,-1.0055 -0.60912,-1.50736 -2.70564,-0.85874 -5.96309,0.36053 -4.10686,1.5372 1.69966,1.07741 2.98051,1.06931 4.71598,-0.0298 z m -11.38213,-2.09401 c -0.33992,-0.55 -1.29303,-1 -2.11803,-1 -0.825,0 -1.22189,0.45 -0.88197,1 0.33992,0.55 1.29303,1 2.11803,1 0.825,0 1.22189,-0.45 0.88197,-1 z m -79.5,-4 c 1.21296,-0.78387 1.06944,-0.9723 -0.75,-0.98469 -1.2375,-0.008 -2.25,0.43469 -2.25,0.98469 0,1.25292 1.06124,1.25292 3,0 z m -10,-1.44098 c 0,-0.24254 -0.45,-0.7191 -1,-1.05902 -0.55,-0.33992 -1,-0.14148 -1,0.44098 0,0.58246 0.45,1.05902 1,1.05902 0.55,0 1,-0.19844 1,-0.44098 z m -7.75,-2.2213 c -0.6875,-0.27741 -1.8125,-0.27741 -2.5,0 -0.6875,0.27741 -0.125,0.50439 1.25,0.50439 1.375,0 1.9375,-0.22698 1.25,-0.50439 z m 11.8538,-39.63392 c -1.28349,-1.28349 -2.58506,-0.2915 -1.63484,1.24598 0.36808,0.59556 1.12735,0.79971 1.68727,0.45366 0.683,-0.42212 0.66575,-0.98146 -0.0524,-1.69964 z m 125.63775,-45.4538 c -0.19241,-3.7125 -0.34983,-0.675 -0.34983,6.75 0,7.425 0.15742,10.4625 0.34983,6.75 0.19241,-3.7125 0.19241,-9.7875 0,-13.5 z m -0.0343,-17.48834 c -0.23918,-1.24391 -0.44397,-0.46166 -0.45507,1.73834 -0.0111,2.2 0.18461,3.21775 0.4349,2.26166 0.25029,-0.95609 0.25937,-2.75609 0.0202,-4 z m -4.2877,-23.268 c -0.0442,-6.0535 -0.39031,-12.241 -0.76905,-13.75 l -0.6886,-2.74366 -12.30727,0 c -6.769,0 -17.22293,-0.51807 -23.23095,-1.15127 -6.00803,-0.6332 -12.94868,-1.1957 -15.42368,-1.25 l -4.5,-0.0987 0.34332,12 c 0.26638,9.31063 0.68805,12.27037 1.88151,13.2064 3.7961,2.9773 21.14005,5.09813 40.27517,4.92488 l 14.5,-0.13128 -0.0804,-11.00634 z m -36.0318,158.81866 c -3.58048,-0.70401 -7.73147,-5.80671 -7.02229,-8.6323 1.09277,-4.35395 10.26209,-4.12063 16.01882,0.40761 3.70154,2.91164 3.38392,5.69345 -0.85216,7.4634 -3.48341,1.45546 -4.24964,1.52708 -8.14437,0.76129 z m -88.88775,-7.46705 c -4.93407,-2.69873 -6.12175,-8.14923 -2.16826,-9.95056 4.95791,-2.25897 15.87712,3.51266 14.3204,7.56942 -1.1848,3.08753 -8.30859,4.4834 -12.15214,2.38114 z m 130.5,-1.34527 c 0,-0.825 0.45,-1.5 1,-1.5 0.55,0 1,0.675 1,1.5 0,0.825 -0.45,1.5 -1,1.5 -0.55,0 -1,-0.675 -1,-1.5 z m 0,-14.44098 c 0,-2.23246 0.45,-4.05902 1,-4.05902 0.55,0 1,1.54844 1,3.44098 0,1.89254 -0.45,3.7191 -1,4.05902 -0.60393,0.37325 -1,-0.98962 -1,-3.44098 z m 16.58506,-21.92138 c -0.33948,-0.54929 -0.63085,-18.01747 -0.6475,-38.81818 -0.0462,-57.75946 -0.21398,-53.10116 1.95418,-54.26152 1.04045,-0.55683 9.70295,-2.1536 19.25,-3.54836 20.58964,-3.00801 34.49188,-5.1733 41.35826,-6.44159 3.71742,-0.68664 5.33253,-0.60038 6.29634,0.33628 1.04583,1.01638 1.14245,9.07036 0.5,41.67778 l -0.79634,40.41795 -2.25,0.31955 c -1.2375,0.17575 -2.25,0.76858 -2.25,1.31739 0,0.56134 0.92664,0.70373 2.11831,0.32551 1.53036,-0.48572 1.99479,-0.29625 1.67326,0.68261 -0.52367,1.59428 -7.86237,3.78259 -40.27572,12.00975 -13.19129,3.34822 -24.50827,6.28879 -25.14885,6.5346 -0.64059,0.24582 -1.44246,-0.002 -1.78194,-0.55177 z m 13.41494,-7.13764 c 0,-0.55 -0.19844,-1 -0.44098,-1 -0.24254,0 -0.7191,0.45 -1.05902,1 -0.33992,0.55 -0.14148,1 0.44098,1 0.58246,0 1.05902,-0.45 1.05902,-1 z m 16,-3.60699 c 0,-0.21615 -0.675,-0.39301 -1.5,-0.39301 -0.825,0 -1.5,0.43588 -1.5,0.96862 0,0.53273 0.675,0.70959 1.5,0.39301 0.825,-0.31659 1.5,-0.75246 1.5,-0.96862 z m 14.5,-3.39301 c 0.33992,-0.55 0.16803,-1 -0.38197,-1 -0.55,0 -1.27811,0.45 -1.61803,1 -0.33992,0.55 -0.16803,1 0.38197,1 0.55,0 1.27811,-0.45 1.61803,-1 z m 7.5,-2 c 0,-0.55 -0.42344,-1 -0.94098,-1 -0.51754,0 -1.2191,0.45 -1.55902,1 -0.33992,0.55 0.0835,1 0.94098,1 0.85746,0 1.55902,-0.45 1.55902,-1 z m 6.5,-1 c 0.33992,-0.55 0.16803,-1 -0.38197,-1 -0.55,0 -1.27811,0.45 -1.61803,1 -0.33992,0.55 -0.16803,1 0.38197,1 0.55,0 1.27811,-0.45 1.61803,-1 z"
         id="path3058"
         inkscape:connector-curvature="0" />
      <path
         style="fill:#a4594c"
         d="m 296.53807,595.75438 c -2.03053,-1.59721 -2.46739,-2.52277 -1.77484,-3.76029 0.60179,-1.07532 0.46015,-2.52826 -0.41059,-4.21209 -1.2331,-2.38455 -1.92924,-10.68363 -2.9351,-34.99126 -0.57355,-13.86031 -2.50669,-29.93082 -3.87311,-32.19779 -0.98659,-1.63682 -1.99743,-1.89519 -5.98048,-1.52862 -5.86989,0.54022 -7.69899,-1.413 -7.7221,-8.2461 -0.0181,-5.35429 -1.87172,-9.37382 -2.08786,-4.52749 -0.0736,1.65 -0.0745,3.50247 -0.002,4.1166 0.0724,0.61413 -0.54267,1.67626 -1.36688,2.36029 -1.19906,0.99514 -4.23433,0.91405 -15.187,-0.40571 -22.7962,-2.74686 -37.2787,-6.24468 -35.79506,-8.64525 0.34452,-0.55745 0.10693,-1.63946 -0.52797,-2.40447 -0.76334,-0.91976 -1.3545,-9.59273 -1.74518,-25.60329 -0.5512,-22.58938 -0.46964,-24.30094 1.21667,-25.53401 1.30182,-0.95191 1.51948,-1.68009 0.77803,-2.6029 -1.11047,-1.38212 -2.57099,-55.90405 -1.59728,-59.62752 0.64159,-2.45346 3.82753,-2.90541 4.68728,-0.66493 0.44654,1.16365 1.13934,1.27286 3.17209,0.5 3.31032,-1.25858 3.52296,-1.24358 3.22058,0.22721 -0.17349,0.84387 3.26944,1.59669 11.25,2.4599 13.16095,1.42353 25.75542,1.33491 25,-0.17592 -0.275,-0.55 -1.625,-0.85695 -3,-0.68212 -1.68627,0.21441 -2.17451,-0.0133 -1.5,-0.69957 0.55,-0.5596 3.25,-1.21657 6,-1.45993 l 5,-0.44247 -0.34796,-13.35796 c -0.19149,-7.34687 -0.55544,-13.5719 -0.80888,-13.83338 -0.25344,-0.26149 -8.62742,-0.81156 -18.60884,-1.22238 -16.79576,-0.69127 -21.64863,-1.22132 -20.61798,-2.25198 0.2215,-0.22149 10.9734,-1.57147 23.89313,-2.99996 12.91973,-1.42849 29.34042,-3.28364 36.49042,-4.12255 7.15,-0.83891 18.175,-1.77815 24.5,-2.08721 l 11.5,-0.56191 4.31086,3.74073 c 4.97652,4.31835 3.92329,4.29736 33.68914,0.67139 8.8,-1.07199 20.85069,-2.00517 26.77932,-2.07373 11.59967,-0.13414 14.01766,0.63495 17.18264,5.46531 1.54594,2.35942 1.50541,2.47973 -1.18052,3.50389 -1.52979,0.58332 -7.95644,1.72112 -14.28144,2.52846 -6.325,0.80733 -14.65,2.03664 -18.5,2.7318 l -7,1.26393 -0.215,23.44482 c -0.11826,12.89465 -0.47196,36.26982 -0.78602,51.94482 -0.31405,15.675 -0.73869,37.42139 -0.94363,48.3253 -0.34701,18.46276 -0.69718,21.8662 -2.10491,20.45847 -0.30226,-0.30226 -0.79955,-15.11476 -1.10508,-32.91667 -0.30554,-17.8019 -0.73323,-32.5546 -0.95044,-32.78377 -0.21721,-0.22916 -0.40181,16.42084 -0.41023,37 -0.008,20.76218 -0.42088,38.05765 -0.92648,38.85673 -1.56175,2.46827 -34.95821,-0.97908 -51.60982,-5.32742 -3.25386,-0.84971 -6.21795,-1.22265 -6.58686,-0.82878 -0.36891,0.39388 -0.84219,18.94114 -1.05173,41.21614 -0.23674,25.16557 -0.76991,41.17819 -1.40819,42.29118 -0.97362,1.69773 -1.16771,1.68065 -3.7207,-0.32754 z m 37.77459,-81.89164 c 0.75285,-1.21814 -2.71621,-2.29292 -4.80888,-1.48989 -0.89932,0.3451 -1.38616,1.03031 -1.08186,1.52267 0.72846,1.17868 5.15725,1.15403 5.89074,-0.0328 z m -11.9555,-2.072 c -0.33992,-0.55 -1.26648,-1 -2.05902,-1 -0.79254,0 -1.44098,0.45 -1.44098,1 0,0.55 0.92656,1 2.05902,1 1.13246,0 1.7809,-0.45 1.44098,-1 z m -67,-3 c 0.35052,-0.56716 -0.48962,-1 -1.94098,-1 -1.40746,0 -2.55902,0.45 -2.55902,1 0,0.55 0.87344,1 1.94098,1 1.06754,0 2.2191,-0.45 2.55902,-1 z m -10.5,-1 c 0,-0.55 -1.125,-1 -2.5,-1 -1.375,0 -2.5,0.45 -2.5,1 0,0.55 1.125,1 2.5,1 1.375,0 2.5,-0.45 2.5,-1 z m -11,-1.39301 c 0,-0.21616 -0.675,-0.65203 -1.5,-0.96862 -0.825,-0.31658 -1.5,-0.13972 -1.5,0.39301 0,0.53274 0.675,0.96862 1.5,0.96862 0.825,0 1.5,-0.17686 1.5,-0.39301 z m -8.75,-2.26927 c -0.6875,-0.27741 -1.8125,-0.27741 -2.5,0 -0.6875,0.27741 -0.125,0.50439 1.25,0.50439 1.375,0 1.9375,-0.22698 1.25,-0.50439 z m 103.41552,-14.91233 c 2.24846,-2.24847 2.51453,-3.19981 2.10036,-7.51013 -0.26083,-2.71454 -1.21486,-5.7539 -2.12006,-6.75413 -0.9052,-1.00024 -1.64582,-2.74753 -1.64582,-3.88288 0,-2.10686 -2.44892,-3.73687 -4.09024,-2.72248 -0.50037,0.30925 -0.90976,1.46785 -0.90976,2.57468 0,1.10682 -0.675,2.68741 -1.5,3.51241 -0.95473,0.95473 -1.5,3.42028 -1.5,6.78255 0,4.22127 0.49266,5.81413 2.45225,7.92857 3.04982,3.2908 3.98462,3.30006 7.21327,0.0714 z m -87.57179,-5.03833 c 1.91498,-2.30741 1.60609,-11.95629 -0.4557,-14.23453 -0.90092,-0.99551 -1.63803,-2.73893 -1.63803,-3.87428 0,-1.13535 -0.5625,-2.27113 -1.25,-2.52395 -2.15504,-0.79251 -3.75,0.32568 -3.75,2.62903 0,1.21917 -0.50192,2.71859 -1.11539,3.33205 -1.70948,1.70949 -1.36038,10.90957 0.52306,13.78405 1.88651,2.87918 5.67054,3.31619 7.68606,0.88763 z m 103.04557,-25.64776 c -0.56308,-0.56308 -2.21496,-0.67195 -3.81608,-0.2515 -2.53325,0.66522 -2.61944,0.8164 -0.83919,1.47196 2.6449,0.97396 5.9763,0.10057 4.65527,-1.22046 z m -10.72683,0.65592 c 2.53239,-0.97178 0.76648,-2.39522 -2.97149,-2.39522 -3.38232,0 -4.64517,1.34743 -2.19098,2.33772 1.80613,0.72879 3.36779,0.74618 5.16247,0.0575 z m -10.41247,-2.39522 c 0,-0.55 -0.9,-1 -2,-1 -1.1,0 -2,0.45 -2,1 0,0.55 0.9,1 2,1 1.1,0 2,-0.45 2,-1 z m -67.14324,-1.89031 c 2.08957,-1.32402 0.37843,-1.80855 -9.10676,-2.57874 -5.54642,-0.45036 -8.75,-0.35067 -8.75,0.27229 0,1.55025 2.97358,2.29234 6.51972,1.62708 1.92048,-0.36028 3.52692,-0.16387 3.92478,0.47987 0.79938,1.29344 5.4867,1.41959 7.41226,0.1995 z m -20.85676,-3.10969 c 0,-0.55 -1.125,-1 -2.5,-1 -1.375,0 -2.5,0.45 -2.5,1 0,0.55 1.125,1 2.5,1 1.375,0 2.5,-0.45 2.5,-1 z m -10.27083,-1.60417 c -0.3323,-0.33229 -1.1948,-0.36781 -1.91667,-0.0789 -0.79773,0.31922 -0.56078,0.55618 0.60417,0.60416 1.05416,0.0434 1.64479,-0.19292 1.3125,-0.52522 z m 46.95394,-2.58333 c -0.31922,-0.79773 -0.55618,-0.56078 -0.60416,0.60417 -0.0434,1.05416 0.19292,1.64479 0.52522,1.3125 0.33229,-0.3323 0.36781,-1.1948 0.0789,-1.91667 z m 55.37435,-5.70514 c -0.62031,-1.15905 -1.78699,-2.10736 -2.59264,-2.10736 -1.8898,0 -1.85056,1.00427 0.15091,3.86176 2.03942,2.91168 4.13364,1.40696 2.44173,-1.7544 z m 7.88914,-0.46358 c -0.96285,-0.88745 -1.09592,-0.73326 -0.59378,0.68801 0.35595,1.00748 0.69938,2.35748 0.76318,3 0.0638,0.64251 0.331,0.33291 0.59378,-0.68801 0.26278,-1.02092 -0.0806,-2.37092 -0.76318,-3 z m -83.61524,-0.89378 c -0.75719,-3.97788 -1.08194,-4.39943 -2.38519,-3.09617 -0.69106,0.69106 -0.69367,1.88011 -0.008,3.68333 1.43825,3.78289 3.14539,3.36406 2.39327,-0.58716 z m 7.09443,-1.08278 c -0.35187,-0.91697 -1.04162,-1.66722 -1.53278,-1.66722 -1.04564,0 -1.20723,3.35245 -0.20968,4.35 1.12469,1.12468 2.43146,-0.88729 1.74246,-2.68278 z m 13.26354,-1.41722 c -0.25153,-0.9625 -0.45733,-0.175 -0.45733,1.75 0,1.925 0.2058,2.7125 0.45733,1.75 0.25152,-0.9625 0.25152,-2.5375 0,-3.5 z m -32.70464,1.5 c -0.0225,-1.83512 -1.77216,-4.29586 -2.52162,-3.5464 -0.87435,0.87435 0.43751,4.7964 1.60432,4.7964 0.51293,0 0.92572,-0.5625 0.9173,-1.25 z m 123.75686,-20.5 c -0.19241,-3.7125 -0.34983,-0.675 -0.34983,6.75 0,7.425 0.15742,10.4625 0.34983,6.75 0.19241,-3.7125 0.19241,-9.7875 0,-13.5 z m -91.03429,10.51166 c -0.23919,-1.24391 -0.44398,-0.46166 -0.45508,1.73834 -0.0111,2.2 0.18461,3.21775 0.4349,2.26166 0.25029,-0.95609 0.25937,-2.75609 0.0202,-4 z m 65.32792,2.30408 c -0.56935,-1.06384 -1.03518,-2.86384 -1.03518,-4 0,-1.13616 -0.45,-2.06574 -1,-2.06574 -1.10636,0 -1.39159,6.27508 -0.33333,7.33333 0.36666,0.36667 1.2825,0.66667 2.03518,0.66667 1.04314,0 1.12239,-0.45989 0.33333,-1.93426 z m -6.49406,-0.13227 c 0.91669,-1.48324 0.0546,-2.0993 -1.89225,-1.35222 -0.90056,0.34557 -1.38841,1.03117 -1.08411,1.52353 0.74846,1.21104 2.17268,1.12906 2.97636,-0.17131 z m -4.87884,-4.18347 c -0.27741,-0.6875 -0.50439,-0.125 -0.50439,1.25 0,1.375 0.22698,1.9375 0.50439,1.25 0.27741,-0.6875 0.27741,-1.8125 0,-2.5 z m -78.31952,-2 c -0.8907,-4.76712 -2.34276,-5.76914 -2.34276,-1.61667 0,3.51245 0.59595,4.86667 2.14167,4.86667 0.44458,0 0.53507,-1.4625 0.20109,-3.25 z m 10.47366,0.57712 c -0.36239,-3.06117 -2.51932,-4.26493 -3.42288,-1.91028 -0.85392,2.22527 0.24782,4.58316 2.1415,4.58316 1.14414,0 1.50796,-0.75891 1.28138,-2.67288 z m -25.2925,-3.25176 c -0.7251,-2.28458 -2.52392,-2.83719 -2.52392,-0.77536 0,1.42333 2.12007,3.91326 2.77464,3.25869 0.22438,-0.22438 0.11156,-1.34188 -0.25072,-2.48333 z m 39.18334,-3.3137 c -0.23919,-1.24391 -0.44398,-0.46166 -0.45508,1.73834 -0.0111,2.2 0.18461,3.21775 0.4349,2.26166 0.25029,-0.95609 0.25937,-2.75609 0.0202,-4 z m -0.0143,-11.49263 c -0.25351,-0.97297 -0.47763,-0.41903 -0.49801,1.23097 -0.0204,1.65 0.18706,2.44606 0.46099,1.76903 0.27392,-0.67703 0.29059,-2.02703 0.037,-3 z m 68.14057,-2.62525 c 0.54434,-2.8543 -0.96845,-3.62827 -5.21829,-2.66978 -2.54286,0.57351 -4.48132,0.50209 -5.61666,-0.20694 -0.95352,-0.59549 -2.54818,-0.77015 -3.54369,-0.38814 -1.59913,0.61365 -1.63734,0.86723 -0.32798,2.17659 1.53556,1.53556 8.88108,3.37894 12.36284,3.10248 1.09439,-0.0869 2.14909,-0.99329 2.34378,-2.01421 z m 22.8737,-3.88212 c -0.23916,-1.24391 -0.44395,-0.46166 -0.45505,1.73834 -0.0111,2.2 0.18461,3.21775 0.4349,2.26166 0.25029,-0.95609 0.25937,-2.75609 0.0202,-4 z m -105.35709,0.77307 c 1.01757,-0.77091 1.59273,-1.81816 1.27811,-2.32721 -0.87611,-1.41759 -11.16949,-2.33244 -14.02557,-1.24656 -1.62068,0.61618 -2.7458,0.61648 -3.1263,8.3e-4 -1.07851,-1.74506 -4.65225,-1.11354 -4.29175,0.7584 0.68317,3.5474 16.3178,5.72956 20.16551,2.81454 z m 14.31214,-3.78473 c -0.27741,-0.6875 -0.50439,-0.125 -0.50439,1.25 0,1.375 0.22698,1.9375 0.50439,1.25 0.27741,-0.6875 0.27741,-1.8125 0,-2.5 z m 72.97109,-3.58397 c 0.62335,-0.0913 1.36872,-1.06603 1.65638,-2.16603 0.4231,-1.61794 1.36401,-2 4.9255,-2 7.70583,0 8.20133,-0.93556 7.49326,-14.14801 -0.33719,-6.29183 -0.88345,-12.14431 -1.21392,-13.0055 -0.50325,-1.31143 -3.55699,-1.65854 -18.79772,-2.13664 -10.00828,-0.31396 -22.16095,-1.11553 -27.00594,-1.78127 -5.24584,-0.72082 -9.17456,-0.84495 -9.71263,-0.30688 -0.50852,0.50853 -0.6335,6.2745 -0.28585,13.18873 0.7033,13.98783 0.50302,13.68361 10.30755,15.65671 4.4977,0.90513 5.55823,1.51013 5.81955,3.31985 0.26031,1.80273 1.00189,2.23149 4,2.31269 2.02425,0.0548 4.76297,0.39232 6.08606,0.75 2.09804,0.56718 13.53868,0.78354 16.72776,0.31635 z m -22.18847,141.74096 c -7.58578,-2.14323 -9.91515,-10.17067 -3.23576,-11.15099 6.25968,-0.91873 14.79086,3.28109 14.79086,7.2814 0,3.21606 -6.34617,5.34128 -11.5551,3.86959 z m -88.9449,-7.07797 c -4.70784,-2.53674 -6.06819,-7.91938 -2.48599,-9.83652 2.82099,-1.50974 8.57177,-0.21192 12.05746,2.72109 4.76156,4.00659 3.56655,6.55062 -3.57147,7.60323 -2.2,0.32443 -4.9,0.10492 -6,-0.4878 z m 130.5,-1.32902 c 0,-0.825 0.45,-1.5 1,-1.5 0.55,0 1,0.675 1,1.5 0,0.825 -0.45,1.5 -1,1.5 -0.55,0 -1,-0.675 -1,-1.5 z m 0,-14.44098 c 0,-2.23246 0.45,-4.05902 1,-4.05902 0.55,0 1,1.54844 1,3.44098 0,1.89254 -0.45,3.7191 -1,4.05902 -0.60393,0.37325 -1,-0.98962 -1,-3.44098 z m 16.70115,-21.74085 c -0.47897,-0.78196 -1.05684,-31.58871 -0.81606,-43.50481 0.1137,-5.62684 0.14828,-5.68994 3.2879,-6 1.74514,-0.17235 3.38154,-0.94757 3.63645,-1.72271 0.34115,-1.03742 -0.0344,-1.20603 -1.42299,-0.63891 -4.94123,2.01802 -4.86832,2.26079 -5.15892,-17.17893 l -0.27247,-18.22719 3.52247,-1.47178 c 4.55507,-1.90323 4.51306,-2.98226 -0.0825,-2.12012 -2.72516,0.51124 -3.4996,0.36008 -3.17311,-0.61938 0.23754,-0.71262 1.97229,-1.59387 3.855,-1.95834 11.40604,-2.20803 16.01767,-2.876 19.85572,-2.876 3.75012,0 4.14735,0.19869 3.0473,1.52417 -1.55029,1.86799 -0.8593,2.7505 1.4575,1.86146 1.07478,-0.41243 1.54038,-1.36246 1.23675,-2.52354 -0.37802,-1.44553 0.0665,-1.86209 1.98682,-1.86209 2.01869,0 2.35699,0.36792 1.83899,2 -0.71741,2.26037 -0.2109,2.45083 2.56574,0.96482 1.06384,-0.56935 1.93426,-1.69435 1.93426,-2.5 0,-1.33061 0.51837,-1.59437 2.75,-1.39924 0.4125,0.0361 0.60893,0.74956 0.43652,1.58555 -0.20959,1.01624 0.28752,1.38908 1.5,1.12503 0.99741,-0.21722 1.67723,-1.00198 1.51069,-1.74391 -0.35694,-1.59024 1.56203,-2.99538 4.12018,-3.01694 1.36268,-0.0115 1.65907,0.48351 1.18461,1.9784 -0.47169,1.48615 -0.25935,1.85041 0.83407,1.43082 0.80676,-0.30958 1.69406,-1.43175 1.97177,-2.4937 0.59219,-2.26457 3.69216,-2.62629 3.69216,-0.43083 0,2.24317 3.6847,1.81369 4.28975,-0.5 0.28766,-1.1 1.01514,-2 1.61663,-2 0.60149,0 1.09362,0.9 1.09362,2 0,2.27385 0.38174,2.40125 2.99859,1.00075 1.49112,-0.79802 1.99477,-0.59705 2.50101,0.99798 0.69627,2.19375 0.6011,11.93427 -0.24261,24.83076 -0.49637,7.58721 -0.75489,8.40931 -2.90096,9.22525 -3.42649,1.30275 -2.93114,3.01028 0.66465,2.29112 l 3.02068,-0.60413 -0.27068,20.87913 c -0.26963,20.79793 -0.27943,20.88038 -2.52068,21.19869 -1.2375,0.17575 -2.25,0.76858 -2.25,1.31739 0,0.56134 0.92664,0.70373 2.11831,0.32551 1.53036,-0.48572 1.99479,-0.29625 1.67326,0.68261 -0.52367,1.59428 -7.86237,3.78259 -40.27572,12.00975 -13.19129,3.34822 -24.50827,6.28879 -25.14885,6.5346 -0.64059,0.24582 -1.39022,0.0788 -1.66585,-0.37124 z m 12.26989,-6.27911 c 0.80907,-0.51167 1.22622,-1.17513 0.927,-1.47435 -0.29922,-0.29923 -1.41119,0.11199 -2.47104,0.91382 -2.10837,1.59508 -0.82724,2.06017 1.54404,0.56053 z m 8,-2 c 0.80907,-0.51167 1.22622,-1.17513 0.927,-1.47435 -0.29922,-0.29923 -1.41119,0.11199 -2.47104,0.91382 -2.10837,1.59508 -0.82724,2.06017 1.54404,0.56053 z m 8.02896,-2.03906 c 1.29269,-0.8354 1.26629,-0.97149 -0.19098,-0.98469 -0.93004,-0.008 -1.9691,0.43469 -2.30902,0.98469 -0.78218,1.2656 0.54163,1.2656 2.5,0 z m 7.5,-2 c 0.33992,-0.55 0.16803,-1 -0.38197,-1 -0.55,0 -1.27811,0.45 -1.61803,1 -0.33992,0.55 -0.16803,1 0.38197,1 0.55,0 1.27811,-0.45 1.61803,-1 z m 8,-2 c 0.33992,-0.55 0.16803,-1 -0.38197,-1 -0.55,0 -1.27811,0.45 -1.61803,1 -0.33992,0.55 -0.16803,1 0.38197,1 0.55,0 1.27811,-0.45 1.61803,-1 z m 7.5,-2 c 0,-0.55 -0.42344,-1 -0.94098,-1 -0.51754,0 -1.2191,0.45 -1.55902,1 -0.33992,0.55 0.0835,1 0.94098,1 0.85746,0 1.55902,-0.45 1.55902,-1 z m 6.5,-1 c 0.33992,-0.55 0.16803,-1 -0.38197,-1 -0.55,0 -1.27811,0.45 -1.61803,1 -0.33992,0.55 -0.16803,1 0.38197,1 0.55,0 1.27811,-0.45 1.61803,-1 z m -21.03672,-10.95942 c 2.5492,-2.81684 3.14727,-10.11034 1.1563,-14.10133 -0.89077,-1.78559 -1.61958,-3.88538 -1.61958,-4.66621 0,-2.87769 -3.43422,-0.70795 -4.32572,2.733 -3.38547,13.06698 -0.69072,22.08956 4.789,16.03454 z m -22.96328,-24.04058 c 0.78687,-1.27319 -1.52988,-1.27319 -3.5,0 -1.21948,0.78809 -1.09025,0.97224 0.69098,0.98469 1.20504,0.008 2.4691,-0.43469 2.80902,-0.98469 z m 8,-2 c 0.33992,-0.55 -0.057,-1 -0.88197,-1 -0.825,0 -1.77811,0.45 -2.11803,1 -0.33992,0.55 0.057,1 0.88197,1 0.825,0 1.77811,-0.45 2.11803,-1 z m 7.04112,-1.06653 c 1.17263,-1.89735 -0.53762,-2.36554 -2.27922,-0.62395 -1.55894,1.55895 -1.56168,1.69048 -0.0352,1.69048 0.9104,0 1.95188,-0.47994 2.31442,-1.06653 z m 7.01775,-1.40167 c 1.63076,-1.23344 1.68089,-1.47328 0.31357,-1.5 -0.89515,-0.0175 -2.18775,0.6432 -2.87244,1.4682 -1.59557,1.92255 0.0323,1.94278 2.55887,0.0318 z m 8.16537,-2.20311 c 0.24807,-0.74511 -0.35856,-0.97557 -1.66714,-0.63337 -1.1314,0.29587 -2.0571,0.96845 -2.0571,1.49464 0,1.32759 3.24537,0.57706 3.72424,-0.86127 z m 7.77576,-1.32869 c 0.33992,-0.55 -0.057,-1 -0.88197,-1 -0.825,0 -1.77811,0.45 -2.11803,1 -0.33992,0.55 0.057,1 0.88197,1 0.825,0 1.77811,-0.45 2.11803,-1 z m 7.25501,-1.75 c 0.56018,-1.701 -0.96337,-1.57255 -3.31388,0.2794 -1.87978,1.48106 -1.8646,1.52057 0.48054,1.25 1.33192,-0.15367 2.60692,-0.8419 2.83334,-1.5294 z m -44.75501,-3.69098 c 0,-0.24254 -0.45,-0.7191 -1,-1.05902 -0.55,-0.33992 -1,-0.14148 -1,0.44098 0,0.58246 0.45,1.05902 1,1.05902 0.55,0 1,-0.19844 1,-0.44098 z m -1.54271,-25.48992 c 1.00194,-1.62117 -1.17528,-2.11382 -2.46643,-0.55809 -1.00476,1.21067 -0.94351,1.48899 0.32768,1.48899 0.85988,0 1.82232,-0.41891 2.13875,-0.9309 z m 7.51375,-1.03004 c 0.80907,-0.51167 1.21098,-1.19037 0.89313,-1.50823 -0.78775,-0.78775 -3.86417,0.46709 -3.86417,1.57616 0,1.13979 1.10118,1.11461 2.97104,-0.0679 z"
         id="path3056"
         inkscape:connector-curvature="0" />
      <path
         style="fill:#62585b"
         d="m 296.53807,595.75438 c -2.03053,-1.59721 -2.46739,-2.52277 -1.77484,-3.76029 0.60179,-1.07532 0.46015,-2.52826 -0.41059,-4.21209 -1.2331,-2.38455 -1.92924,-10.68363 -2.9351,-34.99126 -0.57355,-13.86031 -2.50669,-29.93082 -3.87311,-32.19779 -0.98659,-1.63682 -1.99743,-1.89519 -5.98048,-1.52862 -5.86989,0.54022 -7.69899,-1.413 -7.7221,-8.2461 -0.0181,-5.35429 -1.87172,-9.37382 -2.08786,-4.52749 -0.0736,1.65 -0.0745,3.50247 -0.002,4.1166 0.0724,0.61413 -0.54267,1.67626 -1.36688,2.36029 -1.19906,0.99514 -4.23433,0.91405 -15.187,-0.40571 -22.7962,-2.74686 -37.2787,-6.24468 -35.79506,-8.64525 0.34452,-0.55745 0.10401,-1.64298 -0.53447,-2.4123 -0.7739,-0.9325 -1.35417,-9.58468 -1.74077,-25.95619 -0.66373,-28.10753 -1.79562,-25.50046 10.02162,-23.08282 18.38379,3.76107 39.11555,4.07864 40.54714,0.6211 0.36327,-0.87765 1.33559,-1.59572 2.16059,-1.59572 1.26702,0 1.52571,-2.6006 1.66555,-16.74317 0.0915,-9.25429 -0.24395,-16.99627 -0.75,-17.30902 -0.83086,-0.5135 -1.27097,4.66713 -1.37725,16.21195 -0.0211,2.28787 -0.3758,4.50037 -0.7883,4.91667 -0.72725,0.73395 -0.94767,-6.26321 -1.15218,-36.57643 -0.0935,-13.86137 -0.01,-14.50064 1.90218,-14.51451 1.91775,-0.0139 1.98569,-0.56907 1.65204,-13.5 -0.19138,-7.41702 -0.55533,-13.69944 -0.80877,-13.96092 -0.25344,-0.26149 -8.62742,-0.81156 -18.60884,-1.22238 -16.79576,-0.69127 -21.64863,-1.22132 -20.61798,-2.25198 0.2215,-0.22149 10.9734,-1.57147 23.89313,-2.99996 12.91973,-1.42849 29.34042,-3.28364 36.49042,-4.12255 7.15,-0.83891 18.175,-1.77815 24.5,-2.08721 l 11.5,-0.56191 4.31086,3.74073 c 4.97652,4.31835 3.92329,4.29736 33.68914,0.67139 8.8,-1.07199 20.85069,-2.00517 26.77932,-2.07373 11.59967,-0.13414 14.01766,0.63495 17.18264,5.46531 1.54594,2.35942 1.50541,2.47973 -1.18052,3.50389 -1.52979,0.58332 -7.95644,1.72112 -14.28144,2.52846 -6.325,0.80733 -14.65,2.03664 -18.5,2.7318 l -7,1.26393 -0.215,23.44482 c -0.11826,12.89465 -0.47196,36.26982 -0.78602,51.94482 -0.31405,15.675 -0.73869,37.42139 -0.94363,48.3253 -0.34701,18.46276 -0.69718,21.8662 -2.10491,20.45847 -0.30226,-0.30226 -0.79955,-15.11476 -1.10508,-32.91667 -0.30554,-17.8019 -0.73323,-32.5546 -0.95044,-32.78377 -0.21721,-0.22916 -0.40181,16.42084 -0.41023,37 -0.008,20.76218 -0.42088,38.05765 -0.92648,38.85673 -1.56175,2.46827 -34.95821,-0.97908 -51.60982,-5.32742 -3.25386,-0.84971 -6.21795,-1.22265 -6.58686,-0.82878 -0.36891,0.39388 -0.84219,18.94114 -1.05173,41.21614 -0.23674,25.16557 -0.76991,41.17819 -1.40819,42.29118 -0.97362,1.69773 -1.16771,1.68065 -3.7207,-0.32754 z m 37.77459,-81.89164 c 0.75285,-1.21814 -2.71621,-2.29292 -4.80888,-1.48989 -0.89932,0.3451 -1.38616,1.03031 -1.08186,1.52267 0.72846,1.17868 5.15725,1.15403 5.89074,-0.0328 z m -11.9555,-2.072 c -0.33992,-0.55 -1.26648,-1 -2.05902,-1 -0.79254,0 -1.44098,0.45 -1.44098,1 0,0.55 0.92656,1 2.05902,1 1.13246,0 1.7809,-0.45 1.44098,-1 z m -67,-3 c 0.35052,-0.56716 -0.48962,-1 -1.94098,-1 -1.40746,0 -2.55902,0.45 -2.55902,1 0,0.55 0.87344,1 1.94098,1 1.06754,0 2.2191,-0.45 2.55902,-1 z m -10.5,-1 c 0,-0.55 -1.125,-1 -2.5,-1 -1.375,0 -2.5,0.45 -2.5,1 0,0.55 1.125,1 2.5,1 1.375,0 2.5,-0.45 2.5,-1 z m -11,-1.39301 c 0,-0.21616 -0.675,-0.65203 -1.5,-0.96862 -0.825,-0.31658 -1.5,-0.13972 -1.5,0.39301 0,0.53274 0.675,0.96862 1.5,0.96862 0.825,0 1.5,-0.17686 1.5,-0.39301 z m -8.75,-2.26927 c -0.6875,-0.27741 -1.8125,-0.27741 -2.5,0 -0.6875,0.27741 -0.125,0.50439 1.25,0.50439 1.375,0 1.9375,-0.22698 1.25,-0.50439 z m 103.41552,-14.91233 c 2.24846,-2.24847 2.51453,-3.19981 2.10036,-7.51013 -0.26083,-2.71454 -1.21486,-5.7539 -2.12006,-6.75413 -0.9052,-1.00024 -1.64582,-2.74753 -1.64582,-3.88288 0,-3.64744 -4.96332,-4.11028 -5.0318,-0.46923 -0.0175,0.93004 -0.6925,2.56449 -1.5,3.63211 -0.85069,1.12471 -1.4682,4.11256 -1.4682,7.10398 0,4.09421 0.50758,5.71053 2.45225,7.80887 3.04982,3.2908 3.98462,3.30006 7.21327,0.0714 z m -87.57179,-5.03833 c 1.91498,-2.30741 1.60609,-11.95629 -0.4557,-14.23453 -0.90092,-0.99551 -1.63803,-2.73893 -1.63803,-3.87428 0,-1.13535 -0.5625,-2.27113 -1.25,-2.52395 -2.15504,-0.79251 -3.75,0.32568 -3.75,2.62903 0,1.21917 -0.50192,2.71859 -1.11539,3.33205 -1.70948,1.70949 -1.36038,10.90957 0.52306,13.78405 1.88651,2.87918 5.67054,3.31619 7.68606,0.88763 z m 106.47813,-25.03191 c 2.71048,-0.90467 5.15314,-1.84219 5.42814,-2.08337 0.50239,-0.44062 0.82891,-12.78061 1.0259,-38.77178 0.0741,-9.77057 -0.36427,-15.79015 -1.45092,-19.92564 -0.85637,-3.25911 -1.44857,-6.02431 -1.31601,-6.14491 0.13257,-0.12059 1.99695,-0.94718 4.14307,-1.83685 l 3.90203,-1.6176 -0.59055,-11.7455 c -0.32481,-6.46003 -0.89137,-12.5294 -1.25903,-13.4875 -0.585,-1.52449 -2.19421,-1.742 -12.8878,-1.742 -6.72063,0 -17.13499,-0.51807 -23.14301,-1.15127 -6.00803,-0.6332 -12.94868,-1.1957 -15.42368,-1.25 l -4.5,-0.0987 0.35901,12.5 c 0.30878,10.75072 0.63564,12.80167 2.33568,14.65565 1.61518,1.76143 1.77022,2.5414 0.84778,4.265 -0.78434,1.46555 -1.0394,10.94538 -0.83568,31.06011 0.25703,25.37827 0.49785,29.15522 1.95157,30.60764 3.13166,3.12888 15.78824,6.41928 29.84164,7.75809 1.925,0.18339 4.20734,0.40545 5.07186,0.49347 0.86452,0.088 3.78952,-0.58014 6.5,-1.48481 z m 15.16969,-40.10515 c -0.19241,-3.7125 -0.34983,-0.675 -0.34983,6.75 0,7.425 0.15742,10.4625 0.34983,6.75 0.19241,-3.7125 0.19241,-9.7875 0,-13.5 z m -90.74155,-9.86803 c 0,-1.41203 -0.43519,-2.23104 -1,-1.88197 -0.55,0.33992 -1,1.74303 -1,3.11803 0,1.41203 0.43519,2.23104 1,1.88197 0.55,-0.33992 1,-1.74303 1,-3.11803 z m 90.70726,-7.62031 c -0.23919,-1.24391 -0.44398,-0.46166 -0.45508,1.73834 -0.0111,2.2 0.18461,3.21775 0.4349,2.26166 0.25029,-0.95609 0.25937,-2.75609 0.0202,-4 z m -90.72257,-2.01166 c -0.0124,-1.81944 -0.20082,-1.96296 -0.98469,-0.75 -1.25292,1.93876 -1.25292,3 0,3 0.55,0 0.99311,-1.0125 0.98469,-2.25 z m 50.46021,137.15699 c -7.58578,-2.14323 -9.91515,-10.17067 -3.23576,-11.15099 6.25968,-0.91873 14.79086,3.28109 14.79086,7.2814 0,3.21606 -6.34617,5.34128 -11.5551,3.86959 z m -88.9449,-7.07797 c -4.70784,-2.53674 -6.06819,-7.91938 -2.48599,-9.83652 2.82099,-1.50974 8.57177,-0.21192 12.05746,2.72109 4.76156,4.00659 3.56655,6.55062 -3.57147,7.60323 -2.2,0.32443 -4.9,0.10492 -6,-0.4878 z m 130.5,-1.32902 c 0,-0.825 0.45,-1.5 1,-1.5 0.55,0 1,0.675 1,1.5 0,0.825 -0.45,1.5 -1,1.5 -0.55,0 -1,-0.675 -1,-1.5 z m 0,-14.44098 c 0,-2.23246 0.45,-4.05902 1,-4.05902 0.55,0 1,1.54844 1,3.44098 0,1.89254 -0.45,3.7191 -1,4.05902 -0.60393,0.37325 -1,-0.98962 -1,-3.44098 z m 16.70115,-21.74085 c -0.47851,-0.7812 -1.05742,-31.61083 -0.81606,-43.45876 0.11309,-5.55123 0.1664,-5.64951 3.36491,-6.20288 5.7124,-0.98831 18.10297,-3.52243 22.75,-4.65284 2.475,-0.60206 5.625,-1.25427 7,-1.44936 1.375,-0.19509 4.975,-0.88071 8,-1.52358 6.09879,-1.29613 6.7237,-1.41231 16,-2.97455 3.575,-0.60208 7.74674,-1.34881 9.27054,-1.65941 l 2.77055,-0.56472 -0.27055,20.83396 c -0.26946,20.75113 -0.27949,20.83524 -2.52054,21.15352 -1.2375,0.17575 -2.25,0.76858 -2.25,1.31739 0,0.56134 0.92664,0.70373 2.11831,0.32551 1.53036,-0.48572 1.99479,-0.29625 1.67326,0.68261 -0.52367,1.59428 -7.86237,3.78259 -40.27572,12.00975 -13.19129,3.34822 -24.50827,6.28879 -25.14885,6.5346 -0.64059,0.24582 -1.39022,0.0788 -1.66585,-0.37124 z m 12.26989,-6.27911 c 0.80907,-0.51167 1.22622,-1.17513 0.927,-1.47435 -0.29922,-0.29923 -1.41119,0.11199 -2.47104,0.91382 -2.10837,1.59508 -0.82724,2.06017 1.54404,0.56053 z m 8,-2 c 0.80907,-0.51167 1.22622,-1.17513 0.927,-1.47435 -0.29922,-0.29923 -1.41119,0.11199 -2.47104,0.91382 -2.10837,1.59508 -0.82724,2.06017 1.54404,0.56053 z m 8.02896,-2.03906 c 1.29269,-0.8354 1.26629,-0.97149 -0.19098,-0.98469 -0.93004,-0.008 -1.9691,0.43469 -2.30902,0.98469 -0.78218,1.2656 0.54163,1.2656 2.5,0 z m 7.5,-2 c 0.33992,-0.55 0.16803,-1 -0.38197,-1 -0.55,0 -1.27811,0.45 -1.61803,1 -0.33992,0.55 -0.16803,1 0.38197,1 0.55,0 1.27811,-0.45 1.61803,-1 z m 8,-2 c 0.33992,-0.55 0.16803,-1 -0.38197,-1 -0.55,0 -1.27811,0.45 -1.61803,1 -0.33992,0.55 -0.16803,1 0.38197,1 0.55,0 1.27811,-0.45 1.61803,-1 z m 7.5,-2 c 0,-0.55 -0.42344,-1 -0.94098,-1 -0.51754,0 -1.2191,0.45 -1.55902,1 -0.33992,0.55 0.0835,1 0.94098,1 0.85746,0 1.55902,-0.45 1.55902,-1 z m 6.5,-1 c 0.33992,-0.55 0.16803,-1 -0.38197,-1 -0.55,0 -1.27811,0.45 -1.61803,1 -0.33992,0.55 -0.16803,1 0.38197,1 0.55,0 1.27811,-0.45 1.61803,-1 z m -21.03672,-10.95942 c 2.5492,-2.81684 3.14727,-10.11034 1.1563,-14.10133 -0.89077,-1.78559 -1.61958,-3.88538 -1.61958,-4.66621 0,-2.87769 -3.43422,-0.70795 -4.32572,2.733 -3.38547,13.06698 -0.69072,22.08956 4.789,16.03454 z m -36.96697,-23.18959 c -0.29996,-0.78169 -0.42184,-9.25807 -0.27085,-18.83639 l 0.27454,-17.41514 4.5,-0.26326 c 2.475,-0.14479 6.075,-0.72785 8,-1.29569 6.57807,-1.94042 34.72903,-5.09403 37.17406,-4.16443 1.27927,0.48638 2.70094,0.90073 3.15927,0.92079 1.6581,0.0726 1.68186,0.94563 0.0623,2.28972 -1.09762,0.91095 -3.64993,1.27261 -7.59953,1.07687 -4.12592,-0.20447 -6.67851,0.18468 -8.33631,1.27091 -1.31417,0.8611 -3.59055,1.56563 -5.05859,1.56563 -2.64066,0 -7.65433,1.11908 -14.36352,3.20603 -1.90428,0.59234 -5.72928,1.1258 -8.5,1.18548 l -5.03768,0.10849 -0.31166,3.77168 -0.31166,3.77167 4.31166,-0.60505 c 2.37141,-0.33277 4.98666,-0.8517 5.81166,-1.15316 0.825,-0.30146 2.85,-0.69671 4.5,-0.87834 1.65,-0.18163 8.95549,-1.10447 16.23443,-2.05076 7.27893,-0.94628 13.53056,-1.42439 13.8925,-1.06245 1.43131,1.43132 -1.81391,3.3309 -7.81718,4.57576 -8.83834,1.83276 -8.79676,1.8125 -8.92575,4.34927 -0.0926,1.82057 -0.2116,1.91115 -0.58929,0.44846 -0.38269,-1.48205 -1.17406,-1.73733 -4.134,-1.33358 -2.01339,0.27464 -5.23571,1.01029 -7.16071,1.63478 -1.925,0.62449 -4.94229,1.29044 -6.7051,1.47988 -5.99866,0.64467 -9.2949,2.74033 -9.2949,5.90945 0,2.69382 0.19885,2.83263 3.25,2.26864 1.7875,-0.33041 6.175,-1.06938 9.75,-1.64215 5.97639,-0.95751 12.03344,-2.60508 14.5,-3.94413 1.6833,-0.91383 13.55197,0.39232 13.26695,1.46003 -0.14682,0.55 0.74555,1.1438 1.98305,1.31955 1.2375,0.17575 2.25,0.78704 2.25,1.35841 0,0.61309 -1.04083,0.77762 -2.53957,0.40146 -1.55231,-0.3896 -3.34633,-0.0723 -4.61481,0.81616 -1.14137,0.79945 -2.71414,1.20837 -3.49503,0.90871 -1.45306,-0.55759 -10.05007,1.42462 -11.85059,2.73238 -0.55,0.39948 -2.575,0.98329 -4.5,1.29737 -7.6726,1.25184 -10.5528,1.95926 -11.70201,2.87421 -0.66111,0.52634 -2.15586,0.65425 -3.32167,0.28424 -1.37355,-0.43595 -2.79107,-0.0651 -4.02713,1.0535 -1.58313,1.43271 -2.00023,1.48457 -2.45288,0.305 z m 18.00369,-28.85099 c -0.33992,-0.55 -0.14148,-1 0.44098,-1 0.58246,0 1.05902,0.45 1.05902,1 0,0.55 -0.19844,1 -0.44098,1 -0.24254,0 -0.7191,-0.45 -1.05902,-1 z m -18.25644,-11.23067 c 0.40487,-1.21462 1.38054,-1.48297 13.31664,-3.66266 6.49967,-1.18692 13.14111,-1.47465 12.19477,-0.52831 -0.3181,0.3181 -1.6306,0.76396 -2.91667,0.99079 -1.28606,0.22683 -4.8133,0.87742 -7.8383,1.44576 -3.025,0.56834 -6.70792,1.01759 -8.18426,0.99834 -1.47635,-0.0192 -2.9654,0.41989 -3.30902,0.97588 -0.89368,1.446 -3.7542,1.25332 -3.26316,-0.2198 z m 65.83539,-3.35266 c 0.048,-1.16495 0.28494,-1.4019 0.60416,-0.60417 0.28887,0.72187 0.25335,1.58437 -0.0789,1.91667 -0.33229,0.33229 -0.56864,-0.25834 -0.52522,-1.3125 z m -35.26645,-2.09978 c 0.72187,-0.28888 1.58437,-0.25335 1.91667,0.079 0.33229,0.33229 -0.25834,0.56864 -1.3125,0.52522 -1.16495,-0.048 -1.4019,-0.28494 -0.60417,-0.60417 z"
         id="path3054"
         inkscape:connector-curvature="0" />
      <path
         style="fill:#201f25"
         d="m 323.35716,534.79074 c -0.33992,-0.55 0.0835,-1 0.94098,-1 0.85746,0 1.55902,0.45 1.55902,1 0,0.55 -0.42344,1 -0.94098,1 -0.51754,0 -1.2191,-0.45 -1.55902,-1 z m 6.5,-2.62244 c 0,-2.16959 0.24876,-2.41599 1.44056,-1.42689 0.79231,0.65756 1.19416,1.83766 0.89301,2.62244 -0.90132,2.34882 -2.33357,1.61504 -2.33357,-1.19555 z m -12.84211,-2.37756 c 0,-1.375 0.22698,-1.9375 0.50439,-1.25 0.27741,0.6875 0.27741,1.8125 0,2.5 -0.27741,0.6875 -0.50439,0.125 -0.50439,-1.25 z m -75.15789,-3.5 c 0,-0.825 0.45,-1.5 1,-1.5 0.55,0 1,0.675 1,1.5 0,0.825 -0.45,1.5 -1,1.5 -0.55,0 -1,-0.675 -1,-1.5 z m 107.67555,-8.21785 c -3.99624,-0.32952 -4.62522,-0.63787 -3.66391,-1.79618 1.80558,-2.17558 0.47454,-3.16962 -5.24079,-3.9139 -2.89897,-0.37751 -7.97085,-1.11392 -11.27085,-1.63645 -9.15695,-1.44995 -19.5,-1.9083 -19.5,-0.86414 0,0.51069 0.7875,0.93541 1.75,0.94383 2.0682,0.0181 4.91636,1.65167 4.17401,2.39401 -0.28493,0.28494 -3.5344,-0.38686 -7.22104,-1.49287 -5.18276,-1.55487 -6.70297,-2.43762 -6.70297,-3.89227 0,-1.03473 -0.675,-2.55632 -1.5,-3.38132 -0.825,-0.825 -1.5,-2.85559 -1.5,-4.51241 0,-1.65683 -0.45,-3.29053 -1,-3.63045 -0.55,-0.33992 -1,-1.96306 -1,-3.60698 0,-1.95831 -0.87723,-3.74825 -2.54406,-5.19099 l -2.54406,-2.20203 0.20716,-25.5 c 0.11395,-14.025 0.24627,-34.09299 0.29407,-44.59553 0.069,-15.16736 0.38697,-19.45727 1.54564,-20.854 1.3127,-1.58239 2.44991,-6.93103 3.48003,-16.36758 0.19915,-1.82441 0.55946,-3.51446 0.80068,-3.75568 0.24122,-0.24122 1.24912,5.07648 2.23978,11.8171 1.2283,8.3576 1.95533,20.77051 2.28578,39.02646 l 0.48458,26.77077 2.77957,1.97923 c 1.52876,1.08858 3.29729,1.97923 3.93006,1.97923 0.63278,0 3.03831,0.85805 5.34563,1.90678 7.73729,3.51676 33.20504,4.86716 38.70546,2.05231 1.30187,-0.66624 1.49075,-4.97292 1.36859,-31.20466 -0.0779,-16.73747 -0.44172,-31.37696 -0.80837,-32.53219 -0.48967,-1.54279 -0.10018,-2.4036 1.46705,-3.24236 1.17354,-0.62805 2.30706,-0.96856 2.51894,-0.75668 0.21188,0.21188 0.51084,28.71084 0.66435,63.33102 l 0.27912,62.94578 -2.5,0.09 c -1.375,0.0495 -4.671,-0.089 -7.32445,-0.30783 z m -14.25734,-10.88914 c 2.38316,-0.9145 1.90046,-3.38851 -0.66821,-3.42481 -1.2375,-0.0175 -3.12351,-0.6925 -4.19113,-1.5 -1.77504,-1.34258 -1.39,-1.47834 4.5,-1.58668 3.54262,-0.0652 7.00363,-0.0454 7.69113,0.0438 2.56732,0.33339 1.13073,-1.56463 -2,-2.64238 -4.56292,-1.57079 -8.29133,-2.23019 -15.5,-2.74132 -5.68219,-0.40289 -6.25,-0.26593 -6.25,1.5076 0,1.40156 0.68721,1.95075 2.44098,1.95075 2.69807,0 4.29196,1.57017 2.31525,2.28079 -0.69093,0.24839 -2.66152,0.23723 -4.3791,-0.0248 -3.72762,-0.56867 -5.27098,1.19527 -2.3933,2.73536 1.59874,0.85562 9.02497,2.64144 16.18438,3.89194 0.36752,0.0642 1.38002,-0.15643 2.25,-0.49028 z m -5.25404,-17.07108 c 1.93252,-2.05982 2.30194,-3.44101 2.13954,-7.99938 -0.10796,-3.03032 -0.89546,-6.57674 -1.75,-7.88093 -0.85454,-1.30419 -1.55371,-3.05171 -1.55371,-3.88338 0,-0.83168 -1.09482,-2.22949 -2.43294,-3.10626 -3.13822,-2.05624 -6.56706,-0.47723 -6.56706,3.02419 0,1.32319 -0.424,2.66784 -0.94222,2.98812 -1.32532,0.81909 -2.4128,8.98505 -1.61819,12.15104 0.36456,1.45252 1.92895,3.90706 3.47643,5.45454 3.2516,3.2516 5.68005,3.0552 9.24815,-0.74794 z m -65.80254,20.17807 c 0.39447,-1.02799 -0.0595,-1.5 -1.44267,-1.5 -1.11006,0 -3.23343,-0.6141 -4.71862,-1.36466 -1.48519,-0.75057 -6.30034,-1.66256 -10.70034,-2.02666 -10.23533,-0.84696 -22.5536,-3.51285 -22.99291,-4.97607 -1.45992,-4.86265 -1.45701,-6.7146 0.0115,-7.27811 2.24645,-0.86204 2.99557,0.32109 1.41169,2.22955 -2.06836,2.49221 0.76506,3.9874 9.31373,4.91482 11.35459,1.23184 13.25602,1.1706 13.25602,-0.42692 0,-1.28152 -2.29768,-2.32602 -7.88531,-3.58458 -4.63203,-1.04332 -2.36285,-1.47852 4.44387,-0.85227 4.09279,0.37655 8.0992,0.7252 8.90312,0.77477 2.66405,0.16427 2.36796,-3.33404 -0.3703,-4.37513 -4.12492,-1.56829 -20.92451,-2.98023 -22.27447,-1.87208 -0.79559,0.65308 -1.77818,0.44107 -3,-0.6473 -0.9993,-0.89016 -2.94191,-2.45473 -4.31691,-3.47684 -2.42327,-1.80133 -2.51615,-2.31387 -3.02601,-16.69845 -0.28931,-8.16204 -0.42506,-15.09698 -0.30167,-15.41098 0.12339,-0.314 4.4101,0.048 9.52601,0.80454 5.11592,0.7565 16.05167,1.57129 24.30167,1.81064 l 15,0.43519 0.15006,27.51027 0.15006,27.51027 -3.00705,0 c -2.26209,0 -2.86445,-0.37161 -2.43144,-1.5 z m -22.81618,-24.95455 c 1.99031,-1.9903 2.45338,-3.4561 2.44839,-7.75 -0.003,-2.9125 -0.67839,-6.58439 -1.5,-8.15976 -0.82161,-1.57537 -1.49384,-3.46235 -1.49384,-4.19329 0,-0.73095 -0.99163,-2.02356 -2.20362,-2.87247 -2.95818,-2.07199 -5.53993,-0.35676 -7.33873,4.87558 -2.64823,7.70319 -2.2778,13.42635 1.13124,17.47776 3.12691,3.71612 5.68493,3.89381 8.95656,0.62218 z m -10.4902,9.00228 c -2.26791,-0.78277 -3.02162,-1.45048 -2.2062,-1.95444 0.68121,-0.42101 1.78135,-0.32515 2.44476,0.21301 0.6634,0.53817 2.10619,1.14996 3.20619,1.35955 1.1,0.20959 1.55,0.64877 1,0.97596 -0.55,0.32719 -2.55014,0.0599 -4.44475,-0.59408 z m 151.11297,-29.51244 -0.33177,-18.95614 2.33177,-0.53758 c 15.82461,-3.64831 20.1958,-4.51088 20.63479,-4.07189 0.28493,0.28493 -0.22918,1.34375 -1.14247,2.35293 -2.28317,2.52287 -2.11298,3.40007 1.31168,6.76072 2.77816,2.72623 4.24731,6.28841 2.02778,4.91667 -0.55,-0.33992 -1,-0.089 -1,0.55756 0,0.77462 -0.93797,0.95214 -2.75,0.52045 -5.9179,-1.40985 -7.25,-1.408 -7.25,0.0101 0,0.77657 0.45,1.41194 1,1.41194 0.55,0 1,1.82466 1,4.05479 l 0,4.05479 -4.75,-0.30479 -4.75,-0.30479 -1.03054,4.5 c -0.5668,2.475 -0.75112,6.40932 -0.40961,8.74294 0.69835,4.77195 0.46881,5.25883 -2.47652,5.25278 -2.02599,-0.004 -2.09246,-0.52599 -2.41511,-18.96043 z m 15.83178,-18.03529 c 0,-0.55 -0.45,-1 -1,-1 -0.55,0 -1,0.45 -1,1 0,0.55 0.45,1 1,1 0.55,0 1,-0.45 1,-1 z m -1,23.94098 c 0,-0.58246 0.45,-0.7809 1,-0.44098 0.55,0.33992 1,0.81648 1,1.05902 0,0.24254 -0.45,0.44098 -1,0.44098 -0.55,0 -1,-0.47656 -1,-1.05902 z m 31,-7.94098 c 0,-0.55 0.45,-1 1,-1 0.55,0 1,0.45 1,1 0,0.55 -0.45,1 -1,1 -0.55,0 -1,-0.45 -1,-1 z m -19.28975,-16 c 0.28766,-1.1 0.69553,-2 0.90638,-2 0.21085,0 0.38337,0.9 0.38337,2 0,1.1 -0.40787,2 -0.90638,2 -0.49851,0 -0.67103,-0.9 -0.38337,-2 z m 1.28975,-4.86996 c 0,-2.21793 0.99686,-2.70711 7.50573,-3.68317 4.6997,-0.70476 4.73701,-0.68884 2.87784,1.22887 -1.03596,1.06859 -2.67027,1.75143 -3.6318,1.51741 -0.96153,-0.23402 -2.87403,0.31216 -4.25,1.21373 -2.36892,1.55218 -2.50177,1.53747 -2.50177,-0.27684 z m 25,-6.13004 c 0,-0.55 0.45,-1 1,-1 0.55,0 1,0.45 1,1 0,0.55 -0.45,1 -1,1 -0.55,0 -1,-0.45 -1,-1 z"
         id="path3052"
         inkscape:connector-curvature="0" />
    </g>
  </g>
</svg>
